<svg xmlns="http://www.w3.org/2000/svg" viewBox="0 0 1920 840"><g id="a65d5ac8-8964-49e7-a0ee-d5793d2356a5" data-name="Shield"><path d="M524.218,631.287H314.531c-32.4,0-59.361-9.842-77.982-28.462s-28.462-45.586-28.462-77.981V315.156c0-32.395,9.842-59.361,28.462-77.981s45.586-28.462,77.982-28.462H524.218c32.4,0,59.361,9.842,77.981,28.462s28.463,45.586,28.463,77.981V524.844c0,32.395-9.843,59.361-28.463,77.981S556.613,631.287,524.218,631.287Z"/><path d="M524.218,629.687H314.531c-65.142,0-104.844-39.7-104.844-104.843V315.156c0-65.141,39.7-104.843,104.844-104.843H524.218c65.141,0,104.844,39.7,104.844,104.843V524.844C629.062,589.985,589.359,629.687,524.218,629.687Z" fill="#fff"/></g><g id="a0493a06-58dd-454b-a08c-e97232d62bb3" data-name="Logo"><path d="M523.377,503.6l25.947,23.024c-31.1,35.986-71.084,54.2-119.508,54.2-44.872,0-83.08-15.1-114.624-45.759-31.1-30.655-46.65-69.307-46.65-115.068s15.549-83.966,46.65-114.621c31.544-30.655,69.752-46.206,114.624-46.206,47.535,0,87.074,17.328,118.176,52.425l-25.914,23.059a112.718,112.718,0,0,0-43.6-31.973V440.161H458.912V543.279Q497.494,534.963,523.377,503.6Zm-181.928,6.967a114.986,114.986,0,0,0,40.908,27.308V440.161H362.793V312.4a122.2,122.2,0,0,0-21.344,17.469Q306.362,365.79,306.362,420C306.362,456.142,318.058,486.622,341.449,510.569Zm88.367,35.7a143.214,143.214,0,0,0,20.875-1.484V440.161h-8.6V294.246c-4.007-.326-8.086-.518-12.27-.518a135.738,135.738,0,0,0-30.632,3.369V440.161h-8.605V540.714A134.015,134.015,0,0,0,429.816,546.274Z"/><path d="M924.551,348.354l-25.684,22.06c-15.114-17.225-34.456-25.687-57.723-25.687-21.155,0-38.984,7.253-53.189,21.456S766.8,398.218,766.8,419.675s6.95,39.288,21.156,53.491,32.034,21.155,53.189,21.155c23.874,0,43.517-8.765,58.326-26.293l25.386,22.062a109.241,109.241,0,0,1-83.712,38.379c-31.129,0-57.722-10.274-79.481-30.824-21.457-20.853-32.336-46.843-32.336-77.97s10.879-57.117,32.336-77.969c21.759-20.854,48.352-31.128,79.481-31.128C874.687,310.578,902.491,323.27,924.551,348.354ZM942.1,524.844V372.53h35.964v21.759c6.347-14.807,21.759-24.781,41.1-24.781,20.853,0,35.058,8.765,42.612,26.594,8.764-17.829,25.386-26.594,49.864-26.594,33.546,0,52.888,23.27,52.888,61.046v94.29h-36.266V435.692c0-20.852-9.974-33.847-27.2-33.847-17.829,0-30.22,14.506-30.22,35.357v87.642h-35.961V435.692c0-20.852-9.974-33.847-27.2-33.847-16.924,0-29.617,14.807-29.617,35.357v87.642Zm368.71-130.252V372.53h36.265V524.844h-36.265V502.782c-5.137,14.808-23.573,25.386-48.654,25.386q-32.186,0-54.4-22.666c-14.5-15.412-21.758-34.15-21.758-56.815s7.255-41.4,21.758-56.512c14.809-15.414,32.943-22.969,54.4-22.969C1287.232,369.206,1305.668,379.783,1310.805,394.592Zm-10.88,87.338c9.069-8.764,13.6-19.945,13.6-33.243s-4.533-24.48-13.6-33.243c-8.763-8.764-19.944-13.3-32.939-13.3a43.759,43.759,0,0,0-32.336,13.3c-8.463,8.763-12.694,19.946-12.694,33.243s4.231,24.479,12.694,33.243a43.758,43.758,0,0,0,32.336,13.3C1279.981,495.226,1291.162,490.694,1299.925,481.93Zm77.233-109.4h36.266V537.838c0,34.15-16.924,51.376-50.468,51.376a92.742,92.742,0,0,1-15.11-.907V556.273c4.533.3,7.855.605,9.971.605,13.6,0,19.341-6.347,19.341-22.364Zm-3.624-38.985A21.608,21.608,0,1,1,1395.293,355,21.413,21.413,0,0,1,1373.534,333.545Zm60.979,115.142c0-22.666,8.16-42.007,24.179-57.419S1494.35,368,1517.621,368s42.914,7.857,58.929,23.271,24.18,34.753,24.18,57.419-8.161,42.007-24.18,57.42-35.658,23.269-58.929,23.269-42.914-7.857-58.929-23.269S1434.513,471.352,1434.513,448.687Zm116.654,34.15c9.066-9.369,13.6-20.55,13.6-34.15s-4.533-24.781-13.6-33.847c-9.068-9.369-20.249-13.9-33.546-13.9-13.6,0-24.783,4.532-33.848,13.9-8.764,9.066-13.3,20.247-13.3,33.847s4.533,24.781,13.3,34.15c9.065,9.065,20.25,13.6,33.848,13.6Q1537.567,496.437,1551.167,482.837Zm71.55,42.007V372.53h35.964V395.2c7.255-16.017,23.874-25.687,45.331-25.687a56.417,56.417,0,0,1,10.879.906v35.057a77.484,77.484,0,0,0-15.11-1.51c-25.081,0-41.1,15.714-41.1,40.8v80.087Z"/></g></svg>